<svg xmlns="http://www.w3.org/2000/svg" width="1024" height="1024" viewBox="0 0 1024 1024">
  <rect width="1024" height="1024" fill="#080809"/>
  <g transform="translate(512 512) scale(1.6) translate(-512 -512)">
    <path fill="#10B981" d="M 512 248 Q 540 248 556 278 L 792 734 Q 812 776 766 776 L 600 776 Q 560 776 540 740 L 512 684 L 484 740 Q 464 776 424 776 L 258 776 Q 212 776 232 734 L 468 278 Q 484 248 512 248 Z"/>
    <path fill="#34D399" d="M 512 248 Q 540 248 556 278 L 792 734 Q 812 776 766 776 L 600 776 Q 560 776 540 740 L 512 684 Z"/>
  </g>
</svg>
